HIERARCHY
ROOT hip
{
	OFFSET 0.000000 0.000000 0.000000 
	CHANNELS 6 Xposition Yposition Zposition Xrotation Zrotation Yrotation
	JOINT abdomen
	{
		OFFSET 0.000000 3.402643 0.000000 
		CHANNELS 3 Xrotation Zrotation Yrotation
		JOINT chest
		{
			OFFSET 0.000000 8.438565 -0.680529 
			CHANNELS 3 Xrotation Zrotation Yrotation
			JOINT neck
			{
				OFFSET 0.000000 10.207942 -0.272212 
				CHANNELS 3 Xrotation Zrotation Yrotation
				JOINT head
				{
					OFFSET 0.000000 3.130431 0.000000 
					CHANNELS 3 Xrotation Zrotation Yrotation
					End Site
					{
						OFFSET 0.000000 3.130435 0.000000 
					}
				}
			}
			JOINT lCollar
			{
				OFFSET 3.470700 6.669187 -0.816635 
				CHANNELS 3 Yrotation Zrotation Xrotation
				JOINT lShldr
				{
					OFFSET 3.198488 0.000000 0.000000 
					CHANNELS 3 Zrotation Yrotation Xrotation
					JOINT lForeArm
					{
						OFFSET 10.139888 0.000000 0.000000 
						CHANNELS 3 Yrotation Zrotation Xrotation
						JOINT lHand
						{
							OFFSET 8.370511 0.000000 0.000000 
							CHANNELS 3 Zrotation Yrotation Xrotation
							End Site
							{
								OFFSET 4.083176 0.000000 0.000000 
							}
						}
					}
				}
			}
			JOINT rCollar
			{
				OFFSET -3.470700 6.669187 -0.816635 
				CHANNELS 3 Yrotation Zrotation Xrotation
				JOINT rShldr
				{
					OFFSET -3.198488 0.000000 0.000000 
					CHANNELS 3 Zrotation Yrotation Xrotation
					JOINT rForeArm
					{
						OFFSET -10.139888 0.000000 0.000000 
						CHANNELS 3 Yrotation Zrotation Xrotation
						JOINT rHand
						{
							OFFSET -8.370511 0.000000 0.000000 
							CHANNELS 3 Zrotation Yrotation Xrotation
							End Site
							{
								OFFSET -4.083176 0.000000 0.000000 
							}
						}
					}
				}
			}
		}
	}
	JOINT lThigh
	{
		OFFSET 5.308129 -1.633274 1.361059 
		CHANNELS 3 Xrotation Zrotation Yrotation
		JOINT lShin
		{
			OFFSET -2.041588 -20.007561 0.000000 
			CHANNELS 3 Xrotation Zrotation Yrotation
			JOINT lFoot
			{
				OFFSET 0.000000 -19.190928 -1.224953 
				CHANNELS 3 Xrotation Yrotation Zrotation
				End Site
				{
					OFFSET 0.000000 -2.449906 4.627600 
				}
			}
		}
	}
	JOINT rThigh
	{
		OFFSET -5.308129 -1.633274 1.361059 
		CHANNELS 3 Xrotation Zrotation Yrotation
		JOINT rShin
		{
			OFFSET 2.041588 -20.007561 0.000000 
			CHANNELS 3 Xrotation Zrotation Yrotation
			JOINT rFoot
			{
				OFFSET 0.000000 -19.190928 -1.224953 
				CHANNELS 3 Xrotation Yrotation Zrotation
				End Site
				{
					OFFSET 0.000000 -2.449906 4.627600 
				}
			}
		}
	}
}
MOTION
Frames: 14
Frame Time: 0.016667
-0.400551 74.294785 -0.474034 -18.548210 2.455912 8.074012 35.637173 -2.263404 -1.154050 -0.659900 2.153508 -5.852073 -31.690424 -1.152294 0.609017 -10.429858 -4.953951 -3.048523 12.898471 30.000000 2.047003 28.422453 -29.424038 -45.000000 -24.479004 5.000000 -45.000000 -23.218746 11.037343 11.136580 -18.253382 -28.712296 1.614374 -44.222717 26.192215 -45.000000 20.224594 -5.000000 -45.000000 22.161810 -24.447569 22.089012 21.998026 12.060752 25.225552 8.150978 -5.708817 -1.041688 17.844540 -6.806387 -3.989851 23.518229 -7.048163 0.648687 15.508100 5.172680 1.609944 -20.250566 -3.839860 5.019840 
-0.436961 74.237854 -0.515345 -18.543118 2.331110 7.917073 35.761883 -2.308581 -1.082213 -0.660717 2.182814 -5.783732 -31.709955 -1.152294 0.609017 -10.602710 -4.953263 -3.196145 13.161695 30.000000 2.064657 28.369434 -29.425674 -45.000000 -24.401554 5.000000 -45.000000 -23.295305 11.102551 11.227245 -18.029093 -29.004795 1.634202 -43.548973 25.983143 -45.000000 20.168034 -5.000000 -45.000000 22.314171 -24.521437 21.863686 22.135365 12.471071 25.117035 8.291426 -5.677691 -1.043209 17.392559 -5.575466 -3.985654 23.727808 -6.932166 -0.154731 15.487647 5.172217 1.607369 -21.704714 -4.459826 5.219140 
-0.474789 74.199158 -0.579659 -18.427177 2.283338 7.809340 35.816700 -2.409791 -1.013096 -0.661996 2.202304 -5.793495 -31.758789 -1.152294 0.609017 -10.793215 -4.904085 -3.283706 12.927395 30.000000 2.081612 27.703569 -28.953449 -45.000000 -24.478989 5.000000 -45.000000 -23.304218 11.036265 10.644988 -17.699814 -29.219315 1.650032 -42.956173 25.738806 -45.000000 20.052153 -5.000000 -45.000000 22.480206 -24.685934 22.014717 21.996056 12.832026 25.340162 8.656665 -5.531897 -1.056758 17.077188 -4.640832 -3.989219 23.770197 -6.901503 -0.785454 15.418935 5.191435 1.623321 -23.610788 -5.053249 5.247572 
-0.513561 74.172615 -0.659309 -18.255827 2.274086 7.730889 35.841061 -2.555987 -0.965372 -0.674442 2.231488 -5.842684 -31.807911 -1.160486 0.620132 -10.978558 -4.835600 -3.332355 12.351046 30.000000 2.115586 26.638796 -28.143545 -45.000000 -24.666037 5.000000 -45.000000 -23.265965 10.888332 9.613433 -17.283869 -29.394855 1.663881 -42.428783 25.477602 -45.000000 19.898149 -5.000000 -45.000000 22.659496 -24.921177 22.388128 21.723875 13.154101 25.803125 9.180449 -5.348138 -1.061788 16.768307 -3.878945 -3.995792 23.726112 -6.932907 -1.283473 15.301326 5.233275 1.637741 -25.825460 -5.604212 5.143977 
-0.549369 74.154442 -0.746703 -18.074297 2.264774 7.662582 35.856476 -2.676990 -0.925711 -0.666346 2.250951 -5.871974 -31.876677 -1.178334 0.632706 -11.182504 -4.757273 -3.400472 11.917747 30.000000 2.136388 25.939566 -27.468815 -45.000000 -24.807133 5.000000 -45.000000 -23.219969 10.775322 8.815101 -16.805616 -29.524487 1.683370 -41.946941 25.186800 -45.000000 19.772009 -5.000000 -45.000000 22.803532 -25.218180 22.714542 21.363291 13.514986 26.209061 9.801932 -5.131779 -1.060461 16.515055 -3.223839 -4.060091 23.623926 -6.980145 -1.747666 15.226385 5.270100 1.655686 -27.900751 -6.176613 4.992045 
-0.573314 74.169655 -0.865064 -17.900204 2.255147 7.652822 35.865837 -2.697711 -0.933699 -0.626257 2.241232 -5.852450 -31.975397 -1.233338 0.660776 -11.455782 -4.639864 -3.488065 12.109567 30.000000 2.106868 26.513012 -27.428949 -45.000000 -24.770180 5.000000 -45.000000 -23.125282 10.754585 9.005274 -16.094038 -29.485493 1.676544 -41.571487 24.821156 -45.000000 19.781376 -5.000000 -45.000000 22.817858 -25.759514 22.787260 20.717054 13.934935 26.428223 10.702028 -4.869275 -1.056954 16.433212 -2.653429 -4.164453 23.302906 -7.107031 -2.015532 15.429621 5.279434 1.683061 -29.426231 -6.708567 4.695838 
-0.597260 74.184875 -0.983418 -17.715960 2.245469 7.652439 35.875137 -2.721863 -0.932544 -0.587194 2.241232 -5.842684 -32.074379 -1.286879 0.698498 -11.739795 -4.512719 -3.575671 12.301109 30.000000 2.083103 27.091303 -27.378614 -45.000000 -24.739100 5.000000 -45.000000 -23.030926 10.733347 9.197250 -15.372362 -29.456245 1.675032 -41.193752 24.449196 -45.000000 19.785887 -5.000000 -45.000000 22.823940 -26.300095 22.878292 20.067886 14.336246 26.636196 11.599216 -4.606308 -1.059131 16.263397 -2.056401 -4.264539 22.966043 -7.235879 -2.232892 15.623006 5.291370 1.662179 -30.964239 -7.211756 4.411026 
-0.602828 74.216789 -1.119991 -17.514977 2.439153 7.634131 35.912766 -2.861942 -0.962598 -0.572082 2.182863 -5.783746 -32.124367 -1.341883 0.726564 -12.010329 -4.473396 -3.644581 12.134162 30.000000 2.067175 27.403702 -27.160521 -45.000000 -24.681656 5.000000 -45.000000 -22.917500 10.692566 9.122581 -14.674444 -29.300272 1.666961 -41.080853 24.086111 -45.000000 19.842997 -5.000000 -45.000000 22.868990 -26.909130 23.394680 19.233873 14.598775 26.420853 12.581968 -4.341363 -1.083272 16.457056 -1.819595 -4.364282 22.576817 -7.626761 -3.259703 15.982600 5.066220 1.665641 -32.137264 -7.589094 3.988442 
-0.603804 74.252869 -1.261108 -17.319159 2.671633 7.606191 35.959583 -3.019484 -1.002614 -0.555790 2.104997 -5.715059 -32.164642 -1.396885 0.754629 -12.288818 -4.463309 -3.712731 11.875617 30.000000 2.038439 27.638756 -26.917801 -45.000000 -24.620565 5.000000 -45.000000 -22.800119 10.654279 8.982635 -13.977774 -29.105301 1.652104 -41.034508 23.738825 -45.000000 19.906130 -5.000000 -45.000000 22.906816 -27.545166 24.028219 18.330063 14.802437 26.119732 13.669857 -4.048109 -1.097614 16.646416 -1.647744 -4.439637 22.142590 -8.084348 -4.442225 16.414707 4.783566 1.617374 -33.216518 -7.993598 3.548751 
-0.583623 74.297318 -1.408761 -17.114777 2.981788 7.549623 35.996716 -3.196227 -0.994550 -0.546756 2.007718 -5.597587 -32.214973 -1.450423 0.792345 -12.556393 -4.482499 -3.771909 11.165002 30.000000 2.018474 27.155045 -26.340418 -45.000000 -24.589161 5.000000 -45.000000 -22.715479 10.559797 8.341495 -13.342801 -28.812841 1.632245 -41.217876 23.360584 -45.000000 20.134815 -5.000000 -45.000000 22.815907 -28.184717 24.620094 17.389688 14.872539 25.394531 14.559835 -3.796728 -1.116587 16.738531 -1.605793 -4.566100 21.756977 -8.701480 -5.882389 16.688437 4.489725 1.563042 -34.230991 -7.952120 3.270773 
-0.531708 74.354294 -1.566201 -16.892532 3.389374 7.425629 36.014496 -3.371118 -0.929203 -0.522987 1.861820 -5.382516 -32.295086 -1.532924 0.834697 -12.810891 -4.550402 -3.831099 9.721107 30.000000 2.034037 25.609180 -25.234217 -45.000000 -24.571339 5.000000 -45.000000 -22.675306 10.371295 6.912372 -12.800548 -28.364403 1.604358 -41.724998 22.928186 -45.000000 20.610443 -5.000000 -45.000000 22.539036 -28.812559 25.152943 16.405279 14.726781 24.066141 15.261536 -3.562437 -1.091516 16.554562 -1.890248 -4.733157 21.400602 -9.529474 -7.665729 16.786182 4.109382 1.424448 -35.131409 -7.227592 3.352135 
-0.479790 74.411255 -1.723649 -16.672056 3.797176 7.301414 36.032024 -3.555155 -0.867859 -0.509732 1.715864 -5.167449 -32.375156 -1.605768 0.875338 -13.064462 -4.618237 -3.900029 8.280165 30.000000 2.063147 24.151272 -24.041405 -45.000000 -24.550602 5.000000 -45.000000 -22.649860 10.191957 5.478282 -12.247897 -27.925697 1.572438 -42.224442 22.499235 -45.000000 21.103424 -5.000000 -45.000000 22.259151 -29.441370 25.680317 15.435988 14.588966 22.746159 15.948298 -3.348591 -1.094585 16.328970 -2.183722 -4.924309 21.102329 -10.390168 -9.453744 16.869871 3.753445 1.287602 -36.008080 -6.478714 3.443882 
-0.375262 74.492897 -1.872660 -16.549192 4.101527 6.844227 36.090420 -3.457211 -0.599229 -0.491146 1.511504 -4.766618 -32.618858 -1.576804 0.870956 -13.295636 -4.697602 -3.635653 7.647535 30.000000 2.055054 22.801472 -23.452820 -45.000000 -24.391228 5.000000 -45.000000 -22.658092 9.835955 4.078098 -12.031681 -27.331007 1.532634 -43.484959 22.322807 -45.000000 22.138269 -5.000000 -45.000000 21.676210 -30.000000 26.307590 14.803455 14.257547 19.966936 16.119047 -3.708888 -1.218372 15.954835 -2.442702 -4.589755 20.943888 -11.434931 -9.221402 16.331190 3.961202 1.294377 -36.210857 -6.020499 3.779441 
-0.270731 74.574539 -2.021673 -16.420319 4.415896 6.386555 36.149704 -3.363740 -0.342420 -0.475081 1.316760 -4.375601 -32.871922 -1.539650 0.855461 -13.526723 -4.776867 -3.381009 7.014898 30.000000 2.052540 21.489687 -22.788160 -45.000000 -24.216486 5.000000 -45.000000 -22.675552 9.487391 2.655790 -11.804865 -26.746054 1.497924 -44.719128 22.122360 -45.000000 23.177160 -5.000000 -45.000000 21.075699 -30.000000 26.930607 14.182288 13.902487 17.181841 16.311205 -4.081579 -1.346872 15.558771 -2.637181 -4.201671 20.788416 -12.460155 -8.980855 15.813874 4.136997 1.306606 -36.403244 -5.623730 4.126328 
